<svg width="52" height="53" viewBox="0 0 52 53" fill="none" xmlns="http://www.w3.org/2000/svg">
<path fill-rule="evenodd" clip-rule="evenodd" d="M13.3528 22.3216C12.9713 21.9327 12.9713 21.3101 13.3528 20.9212L14.9491 19.2935C15.3408 18.8941 15.984 18.8938 16.3762 19.2928L25.416 28.4897L34.4558 19.2928C34.848 18.8938 35.4912 18.8941 35.8829 19.2936L37.4793 20.9212C37.8607 21.3101 37.8607 21.9327 37.4793 22.3216L25.416 34.6214L13.3528 22.3216Z" fill="#1F1F1F"/>
<mask id="mask0_2927_17239" style="mask-type:luminance" maskUnits="userSpaceOnUse" x="13" y="18" width="25" height="17">
<path fill-rule="evenodd" clip-rule="evenodd" d="M13.3528 22.3216C12.9713 21.9327 12.9713 21.3101 13.3528 20.9212L14.9491 19.2935C15.3408 18.8941 15.984 18.8938 16.3762 19.2928L25.416 28.4897L34.4558 19.2928C34.848 18.8938 35.4912 18.8941 35.8829 19.2936L37.4793 20.9212C37.8607 21.3101 37.8607 21.9327 37.4793 22.3216L25.416 34.6214L13.3528 22.3216Z" fill="white"/>
</mask>
<g mask="url(#mask0_2927_17239)">
<rect x="0.542969" y="0.59375" width="51" height="52" fill="#1F1F1F"/>
</g>
</svg>
