<svg width="52" height="53" viewBox="0 0 52 53" fill="none" xmlns="http://www.w3.org/2000/svg">
<path fill-rule="evenodd" clip-rule="evenodd" d="M13.3528 30.8659C12.9713 31.2548 12.9713 31.8774 13.3528 32.2663L14.9491 33.894C15.3408 34.2934 15.984 34.2937 16.3762 33.8947L25.416 24.6978L34.4558 33.8947C34.848 34.2937 35.4912 34.2934 35.8829 33.8939L37.4793 32.2663C37.8607 31.8774 37.8607 31.2548 37.4793 30.8659L25.416 18.5661L13.3528 30.8659Z" fill="black"/>
<mask id="mask0_2927_17244" style="mask-type:luminance" maskUnits="userSpaceOnUse" x="13" y="18" width="25" height="17">
<path fill-rule="evenodd" clip-rule="evenodd" d="M13.3528 30.8659C12.9713 31.2548 12.9713 31.8774 13.3528 32.2663L14.9491 33.894C15.3408 34.2934 15.984 34.2937 16.3762 33.8947L25.416 24.6978L34.4558 33.8947C34.848 34.2937 35.4912 34.2934 35.8829 33.8939L37.4793 32.2663C37.8607 31.8774 37.8607 31.2548 37.4793 30.8659L25.416 18.5661L13.3528 30.8659Z" fill="white"/>
</mask>
<g mask="url(#mask0_2927_17244)">
<rect width="51" height="52" transform="matrix(1 0 0 -1 0.542969 52.5938)" fill="black"/>
</g>
</svg>
